<svg width="512" height="512" viewBox="0 0 512 512" xmlns="http://www.w3.org/2000/svg">
  <defs>
    <linearGradient id="bg_gradient" x1="0%" y1="0%" x2="100%" y2="100%">
      <stop offset="0%" style="stop-color:#2b5876;stop-opacity:1" />
      <stop offset="100%" style="stop-color:#4e4376;stop-opacity:1" />
    </linearGradient>
    <filter id="shadow" x="-20%" y="-20%" width="140%" height="140%">
      <feGaussianBlur in="SourceAlpha" stdDeviation="15"/>
      <feOffset dx="0" dy="10" result="offsetblur"/>
      <feComponentTransfer>
        <feFuncA type="linear" slope="0.3"/>
      </feComponentTransfer>
      <feMerge>
        <feMergeNode/>
        <feMergeNode in="SourceGraphic"/>
      </feMerge>
    </filter>
  </defs>
  
  <!-- Rounded Background -->
  <rect x="25" y="25" width="462" height="462" rx="120" ry="120" fill="url(#bg_gradient)" filter="url(#shadow)" />
  
  <!-- Headphone Icon -->
  <g transform="translate(106, 106) scale(0.58)">
    <path fill="#ffffff" d="M256 0h-16C107.5 0 0 107.5 0 240v160h16.5c23.5 0 42.6 17.5 46.6 40.1l7.3 41.5c4.7 26.9 28.1 46.4 55.4 46.4h22.7c36.2 0 62-33.8 54-69.2l-11.8-51.4c-6.2-26.9-30-47.4-56.9-47.4h-37.3v-120c0-101.5 82.5-184 184-184 88.4 0 160 71.6 160 160h-57c-26.9 0-50.7 20.5-56.9 47.4l-11.8 51.4c-8 35.4 17.8 69.2 54 69.2h22.7c27.3 0 50.7-19.5 55.4-46.4l7.3-41.5c4-22.6 23.1-40.1 46.6-40.1H512V240c0-132.5-107.5-240-240-240z"/>
  </g>
</svg>
