<svg width="512" height="512" viewBox="0 0 512 512" xmlns="http://www.w3.org/2000/svg">
  <defs>
    <linearGradient id="bg_gradient" x1="0%" y1="0%" x2="100%" y2="100%">
      <stop offset="0%" style="stop-color:#2b5876;stop-opacity:1" />
      <stop offset="100%" style="stop-color:#4e4376;stop-opacity:1" />
    </linearGradient>
    <filter id="shadow" x="-20%" y="-20%" width="140%" height="140%">
      <feGaussianBlur in="SourceAlpha" stdDeviation="15"/>
      <feOffset dx="0" dy="10" result="offsetblur"/>
      <feComponentTransfer>
        <feFuncA type="linear" slope="0.3"/>
      </feComponentTransfer>
      <feMerge>
        <feMergeNode/>
        <feMergeNode in="SourceGraphic"/>
      </feMerge>
    </filter>
  </defs>
  
  <!-- Rounded Background -->
  <rect x="25" y="25" width="462" height="462" rx="120" ry="120" fill="url(#bg_gradient)" filter="url(#shadow)" />
  
  <!-- Stylized Play Icon / Audio Wave -->
  <g transform="translate(136, 136) scale(0.47)">
      <path fill="#ffffff" d="M384 32h-64c-17.67 0-32 14.33-32 32v218.98c-17.65-8.59-38.35-12.98-64-12.98-63.51 0-112 37.6-112 96s48.49 96 112 96 112-39.06 112-101.46V155.06l99.39 31.06c14.65 4.58 29.83-3.69 34.41-18.34L476.98 144c4.58-14.65-3.69-29.83-18.34-34.41L384 89.06V32zm-160 368c-26.51 0-48-21.49-48-48s21.49-48 48-48 48 21.49 48 48-21.49 48-48 48z"/>
  </g>
</svg>
